<?xml version="1.0" standalone="no"?>
<!DOCTYPE svg PUBLIC "-//W3C//DTD SVG 20010904//EN"
 "http://www.w3.org/TR/2001/REC-SVG-20010904/DTD/svg10.dtd">
<svg version="1.0" xmlns="http://www.w3.org/2000/svg"
 width="358.000000pt" height="358.000000pt" viewBox="0 0 358.000000 358.000000"
 preserveAspectRatio="xMidYMid meet">
<metadata>
Created by potrace 1.11, written by Peter Selinger 2001-2013
</metadata>
<g transform="translate(0.000000,358.000000) scale(0.100000,-0.100000)"
fill="#000000" stroke="none">
<path d="M919 2573 c-31 -82 -672 -1709 -676 -1715 -2 -5 42 -8 99 -8 l103 0
106 278 106 277 351 3 350 2 70 -177 c38 -98 87 -224 108 -280 l39 -103 104 0
c94 0 103 2 96 18 -3 9 -154 395 -335 857 -181 462 -332 848 -335 858 -6 14
-20 17 -91 17 -83 0 -85 -1 -95 -27z m270 -697 c55 -148 101 -273 101 -278 0
-4 -126 -8 -281 -8 -264 0 -281 1 -274 18 65 161 219 579 240 647 14 50 29 97
32 105 3 8 22 -37 42 -100 21 -63 84 -236 140 -384z"/>
<path d="M2030 1720 l0 -872 378 5 c420 5 449 8 573 73 134 70 218 187 240
333 37 249 -74 423 -311 487 -36 10 -69 21 -73 24 -5 4 13 13 40 19 70 18 158
68 199 114 112 124 126 351 29 493 -58 84 -146 135 -290 166 -77 17 -140 21
-437 25 l-348 5 0 -872z m617 689 c222 -25 312 -102 313 -268 0 -90 -14 -139
-52 -186 -69 -83 -164 -105 -465 -105 l-223 0 0 278 c0 153 3 282 7 285 10 11
314 8 420 -4z m90 -744 c144 -27 236 -96 264 -198 17 -60 14 -177 -5 -235 -21
-61 -75 -126 -130 -154 -86 -44 -130 -50 -393 -55 l-253 -5 0 331 0 331 219 0
c152 0 243 -5 298 -15z"/>
</g>
</svg>
